<svg width="147" height="80" viewBox="0 0 147 80" fill="none" xmlns="http://www.w3.org/2000/svg">
<path d="M64.447 15.404C65.665 15.462 67.26 15.52 69.232 15.578C71.204 15.636 73.147 15.665 75.061 15.665C77.787 15.665 80.397 15.636 82.891 15.578C85.385 15.52 87.154 15.491 88.198 15.491C92.896 15.491 96.782 16.158 99.856 17.492C102.988 18.826 105.308 20.653 106.816 22.973C108.382 25.235 109.165 27.787 109.165 30.629C109.165 32.369 108.817 34.225 108.121 36.197C107.425 38.169 106.207 40.025 104.467 41.765C102.785 43.505 100.465 44.955 97.507 46.115C94.549 47.217 90.808 47.768 86.284 47.768H77.932V46.028H85.414C89.532 46.028 92.664 45.39 94.81 44.114C97.014 42.78 98.493 41.04 99.247 38.894C100.059 36.69 100.465 34.254 100.465 31.586C100.465 27.004 99.363 23.466 97.159 20.972C95.013 18.42 91.301 17.144 86.023 17.144C83.355 17.144 81.615 17.637 80.803 18.623C79.991 19.609 79.585 21.61 79.585 24.626V67.778C79.585 69.866 79.759 71.432 80.107 72.476C80.455 73.52 81.122 74.216 82.108 74.564C83.152 74.912 84.66 75.144 86.632 75.26V77C85.298 76.884 83.616 76.826 81.586 76.826C79.614 76.768 77.613 76.739 75.583 76.739C73.321 76.739 71.204 76.768 69.232 76.826C67.26 76.826 65.665 76.884 64.447 77V75.26C66.419 75.144 67.898 74.912 68.884 74.564C69.928 74.216 70.624 73.52 70.972 72.476C71.32 71.432 71.494 69.866 71.494 67.778V24.626C71.494 22.48 71.32 20.914 70.972 19.928C70.624 18.884 69.928 18.188 68.884 17.84C67.898 17.434 66.419 17.202 64.447 17.144V15.404ZM78.28 46.289C81.412 46.405 83.877 46.55 85.675 46.724C87.473 46.84 88.923 46.956 90.025 47.072C91.185 47.188 92.287 47.333 93.331 47.507C97.217 48.145 100.001 49.334 101.683 51.074C103.423 52.756 104.699 55.395 105.511 58.991L107.686 67.865C108.266 70.417 108.846 72.273 109.426 73.433C110.064 74.535 111.021 75.057 112.297 74.999C113.283 74.941 114.095 74.622 114.733 74.042C115.429 73.462 116.154 72.679 116.908 71.693L118.213 72.65C116.995 74.448 115.719 75.84 114.385 76.826C113.109 77.754 111.282 78.218 108.904 78.218C106.758 78.218 104.873 77.58 103.249 76.304C101.625 75.028 100.407 72.534 99.595 68.822L97.681 60.122C97.159 57.628 96.55 55.482 95.854 53.684C95.216 51.828 94.288 50.378 93.07 49.334C91.91 48.29 90.17 47.768 87.85 47.768H78.454L78.28 46.289Z" fill="black"/>
<path d="M119.701 14.969L140.929 69.692C141.799 71.896 142.785 73.375 143.887 74.129C144.989 74.825 146.004 75.202 146.932 75.26V77C145.772 76.884 144.351 76.826 142.669 76.826C140.987 76.768 139.305 76.739 137.623 76.739C135.361 76.739 133.244 76.768 131.272 76.826C129.3 76.826 127.705 76.884 126.487 77V75.26C129.445 75.144 131.33 74.651 132.142 73.781C132.954 72.853 132.78 70.91 131.62 67.952L115.438 24.713L116.83 23.582L101.692 62.906C100.764 65.226 100.213 67.198 100.039 68.822C99.8651 70.388 100.01 71.635 100.474 72.563C100.996 73.491 101.837 74.158 102.997 74.564C104.215 74.97 105.723 75.202 107.521 75.26V77C105.897 76.884 104.186 76.826 102.388 76.826C100.648 76.768 99.0241 76.739 97.5161 76.739C96.0661 76.739 94.8191 76.768 93.7751 76.826C92.7891 76.826 91.8611 76.884 90.9911 77V75.26C92.1511 74.97 93.3401 74.303 94.5581 73.259C95.7761 72.157 96.8781 70.301 97.8641 67.691L118.309 14.969C118.541 14.969 118.773 14.969 119.005 14.969C119.237 14.969 119.469 14.969 119.701 14.969ZM130.315 51.944V53.684H104.389L105.259 51.944H130.315Z" fill="black"/>
<path d="M57.7011 13.969L78.9291 68.692C79.7991 70.896 80.7851 72.375 81.8871 73.129C82.9891 73.825 84.0041 74.202 84.9321 74.26V76C83.7721 75.884 82.3511 75.826 80.6691 75.826C78.9871 75.768 77.3051 75.739 75.6231 75.739C73.3611 75.739 71.2441 75.768 69.2721 75.826C67.3001 75.826 65.7051 75.884 64.4871 76V74.26C67.4451 74.144 69.3301 73.651 70.1421 72.781C70.9541 71.853 70.7801 69.91 69.6201 66.952L53.4381 23.713L54.8301 22.582L39.6921 61.906C38.7641 64.226 38.2131 66.198 38.0391 67.822C37.8651 69.388 38.0101 70.635 38.4741 71.563C38.9961 72.491 39.8371 73.158 40.9971 73.564C42.2151 73.97 43.7231 74.202 45.5211 74.26V76C43.8971 75.884 42.1861 75.826 40.3881 75.826C38.6481 75.768 37.0241 75.739 35.5161 75.739C34.0661 75.739 32.8191 75.768 31.7751 75.826C30.7891 75.826 29.8611 75.884 28.9911 76V74.26C30.1511 73.97 31.3401 73.303 32.5581 72.259C33.7761 71.157 34.8781 69.301 35.8641 66.691L56.3091 13.969C56.5411 13.969 56.7731 13.969 57.0051 13.969C57.2371 13.969 57.4691 13.969 57.7011 13.969ZM68.3151 50.944V52.684H42.3891L43.2591 50.944H68.3151Z" fill="black"/>
<path d="M50.0219 15.404V17.144L15.3089 74.999H32.3609C35.0869 74.999 37.2909 74.709 38.9729 74.129C40.7129 73.549 42.0759 72.65 43.0619 71.432C44.1059 70.156 44.8889 68.474 45.4109 66.386C45.9329 64.298 46.3389 61.746 46.6289 58.73H48.6299C48.4559 60.528 48.3689 62.906 48.3689 65.864C48.3689 66.966 48.3979 68.561 48.4559 70.649C48.5719 72.679 48.7459 74.796 48.9779 77C46.8319 76.884 44.4829 76.826 41.9309 76.826C39.3789 76.768 36.8269 76.739 34.2749 76.739C31.7809 76.739 29.4609 76.739 27.3149 76.739C23.8929 76.739 20.2679 76.768 16.4399 76.826C12.6699 76.826 9.13188 76.884 5.82588 77V75.26L40.7999 17.405H23.8349C21.1089 17.405 18.8759 17.695 17.1359 18.275C15.4539 18.855 14.0909 19.783 13.0469 21.059C12.0609 22.277 11.3069 23.93 10.7849 26.018C10.2629 28.106 9.85688 30.658 9.56688 33.674H7.56588C7.68188 32.746 7.73988 31.673 7.73988 30.455C7.79788 29.237 7.82688 27.932 7.82688 26.54C7.82688 25.438 7.76888 23.872 7.65288 21.842C7.59488 19.754 7.44988 17.608 7.21788 15.404C9.36388 15.462 11.7129 15.52 14.2649 15.578C16.8169 15.636 19.3689 15.665 21.9209 15.665C24.4729 15.665 26.7929 15.665 28.8809 15.665C32.1869 15.665 35.7249 15.665 39.4949 15.665C43.3229 15.607 46.8319 15.52 50.0219 15.404Z" fill="black"/>
</svg>
